<?xml version="1.0" encoding="UTF-8"?>
<!DOCTYPE svg PUBLIC "-//W3C//DTD SVG 1.1//EN" "http://www.w3.org/Graphics/SVG/1.1/DTD/svg11.dtd">
<!-- Creator: CorelDRAW -->
<svg xmlns="http://www.w3.org/2000/svg" xml:space="preserve" width="146.095mm" height="53.4127mm" version="1.1" style="shape-rendering:geometricPrecision; text-rendering:geometricPrecision; image-rendering:optimizeQuality; fill-rule:evenodd; clip-rule:evenodd"
viewBox="0 0 3174.77 1160.7"
 xmlns:xlink="http://www.w3.org/1999/xlink"
 xmlns:xodm="http://www.corel.com/coreldraw/odm/2003">
 <defs>
  <style type="text/css">
   <![CDATA[
    .fil0 {fill:#2CFF05;fill-rule:nonzero}
   ]]>
  </style>
 </defs>
 <g id="Camada_x0020_1">
  <metadata id="CorelCorpID_0Corel-Layer"/>
  <g id="_105553230907616">
   <path class="fil0" d="M294.57 896.47l3.99 -2.39c2.39,-1.33 4.52,-3.72 5.32,-6.12 1.6,-2.39 3.19,-3.99 3.99,-3.99 1.6,0 1.6,0.8 1.6,2.39l0 3.99c0,2.39 0.8,3.19 3.19,3.19l6.12 -1.6c4.79,-1.6 6.92,-3.19 7.72,-6.39l3.99 -7.72 2.39 -6.92c0,-2.39 1.6,-3.19 3.72,-3.19l5.59 -0.8c1.6,0 3.19,-4.79 6.12,-14.9 0.8,-2.93 2.39,-6.92 2.39,-8.51 1.6,-3.19 1.6,-3.99 1.6,-6.92 0,-2.39 1.6,-3.19 3.99,-3.19 2.13,0 2.93,0 2.93,0.8l-0.8 1.6c-0.53,1.6 -1.33,6.92 -2.13,11.71 0,4.52 -1.6,10.11 -2.39,12.51 -1.6,1.33 -2.39,5.32 -3.19,8.51 0,3.19 -1.6,6.92 -2.39,10.11l-0.8 3.19 0.8 2.13c0.8,0 1.6,-0.8 1.6,-2.13 0,-1.6 1.6,-4.79 3.19,-6.39 1.6,-2.39 2.39,-5.32 2.39,-6.92 0,-1.6 2.39,-3.99 5.32,-5.59l3.19 -2.13 -0.8 -0.8c-0.8,0 -1.6,-2.39 -1.6,-4.79 0,-2.39 0.8,-3.99 1.6,-3.99l0.8 0c0.8,0 1.6,-0.8 1.6,-2.13l-0.8 -2.39c-0.8,-0.8 -0.8,-3.19 -0.8,-5.59 0,-3.73 0.8,-9.31 3.19,-10.91 1.6,-0.8 2.13,-2.39 2.13,-2.93l-1.33 -5.59c0,-1.6 0.8,-3.19 2.93,-4.79 2.39,-1.33 3.99,-3.73 3.99,-6.12l0 -0.8c0,-2.39 0.8,-5.32 2.39,-6.92 15.43,-42.84 21.02,-83.55 31.93,-124.8 0.8,-0.8 1.6,-4.79 1.6,-7.72 0.8,-6.39 2.93,-15.7 5.32,-19.69 2.39,-2.93 9.31,-7.72 14.1,-9.31 1.6,-0.8 2.39,-1.6 2.39,-2.39l0 -2.13c0,-0.8 0.8,-1.6 2.93,-1.6l7.18 1.6 -0.8 -2.39 0.8 -1.6c41.24,-2.39 115.22,-7.72 169.24,-9.31l3.72 0c3.19,0 5.59,0 6.39,0.8 1.6,0.8 2.93,1.6 4.52,1.6l6.39 -1.6c2.13,-1.6 7.72,-2.39 12.51,-2.39 9.31,-0.8 14.63,-3.99 14.63,-6.92l0 -1.6c0,-1.6 1.6,-3.19 4.79,-3.19l6.12 0.8c1.6,0 3.19,-0.8 4.79,-2.39 1.6,-1.6 2.39,-3.73 2.39,-4.52l0 -0.8c0,-1.6 1.33,-2.39 2.93,-3.99 2.39,-1.6 3.99,-3.99 4.79,-7.72l0.8 -3.99 -0.8 -3.19 -1.6 1.6c-0.8,0.8 -2.39,1.6 -4.79,1.6l-1.33 0c-2.39,0 -2.39,-1.6 -2.39,-7.72 0,-6.39 0.8,-8.51 3.19,-10.11l1.33 -3.19 0 -1.6c0,-2.39 0,-3.72 1.6,-3.72 1.6,-0.8 1.6,-1.6 1.6,-2.39l0 -0.8 1.6 -0.8c0.8,0 0.8,0 0.8,0.8l0 0.8c0,0.8 2.39,1.6 4.52,1.6l5.59 -0.8 1.6 -1.6 -0.8 -2.39c-0.8,-1.6 -2.39,-2.39 -3.99,-2.39l-3.72 0.8c-5.59,0 -13.31,-3.99 -14.9,-8.51 0,-1.6 -0.8,-2.39 -1.6,-2.39l-0.8 0 0 -2.39c0,-1.6 0,-3.72 0.8,-4.52 0.8,-1.6 2.39,-2.39 3.99,-2.39 3.73,0 8.52,-4.79 8.52,-7.72l0 -0.8c0,-3.99 17.03,-14.1 23.41,-14.1l2.39 0c0.8,0 1.6,-0.8 2.13,-1.6l0.8 -2.39 -0.8 -0.8c-0.53,0 -0.53,0 -0.53,-0.8l1.33 -2.13c2.39,-1.6 3.99,-3.19 3.99,-3.99 0,-1.6 0,-1.6 0.8,-1.6 0.8,0 1.6,-1.6 1.6,-3.19 0,-3.72 3.19,-5.32 7.72,-5.32 4.79,0 4.79,0 9.31,1.6l-3.72 -3.19 -5.59 -3.19c-0.8,0 -1.6,-0.8 -1.6,-1.33 0,-0.8 -0.8,-1.6 -2.4,-1.6 -0.53,0 -3.72,-2.39 -6.92,-4.79 -4.52,-4.52 -24.21,-15.43 -27.14,-15.43l-6.39 -3.19c-1.6,-1.6 -3.99,-2.39 -5.32,-2.39l-0.8 0c-4.79,1.6 -9.31,2.39 -11.71,2.39l-1.6 0c-0.8,-0.8 -4.79,-2.39 -8.51,-2.39 -6.39,-0.8 -7.98,-1.6 -7.98,-4.79 0,-2.13 -1.6,-2.93 -4.52,-2.93 -2.39,0 -4.79,0.8 -4.79,1.6 0,0.53 -0.8,0.53 -2.4,0.53l-2.92 0c-19.69,-2.93 -29.8,-3.72 -48.43,-3.72 -24.21,-0.8 -48.43,-3.19 -66.26,-3.99 -19.43,0 -36.72,-0.8 -37.52,-1.6l0 -1.6 3.19 -18.63 0 -1.6c0,-0.8 0,-1.6 1.6,-1.6 -0.8,-39.65 0,-59.87 -2.39,-98.19l-6.12 6.39 -3.19 -3.99c-1.6,-2.39 -2.39,-3.99 -2.39,-6.12l0 -4.79c0,-1.6 -0.8,-3.19 -2.39,-4.79 -1.33,-2.13 -3.72,-6.12 -4.52,-10.11 -1.6,-5.32 -3.19,-6.12 -10.91,-10.91 -13.3,-6.92 -29.54,-14.63 -33.53,-15.43 -2.39,-0.8 -4.79,-1.6 -6.38,-3.19l-8.52 -5.32c-3.72,-1.6 -6.12,-2.39 -8.51,-2.39l-3.99 0.8c-2.13,0.8 -5.32,0.8 -7.72,0.8 -5.32,0 -10.91,-1.6 -13.31,-3.99 -0.8,-0.8 -3.72,-2.39 -5.32,-2.39l-9.31 -1.6 -5.59 -1.6 -1.6 0c-2.39,0 -3.73,0 -6.92,1.6 -5.59,2.39 -9.31,8.78 -9.31,14.9 0,2.39 -0.8,3.99 -3.99,5.59 -4.79,1.33 -10.91,6.12 -23.41,13.04l0.8 8.78c0,3.72 0.8,9.31 1.6,11.44l1.6 3.19 -1.6 2.39c-0.8,0.8 -1.6,3.19 -1.6,6.12 0,2.39 -0.8,7.18 -2.39,10.38 -4.52,32.73 -21.02,63.86 -24.21,96.59l0 2.39 -1.33 0c-2.39,0 -3.99,4.52 -3.99,13.04 0,5.59 0,10.91 0.8,12.51 0,1.6 -3.99,1.6 -30.33,2.39 -17.3,0 -38.32,0 -48.43,-0.8 -49.23,1.6 -92.07,-2.39 -141.83,10.91 -10.91,2.39 -24.21,4.79 -29.8,4.79l-1.33 0c-1.6,0 -2.39,0 -2.39,0.8 0,1.6 -2.4,2.13 -4.79,2.92 -2.39,0.8 -5.32,3.99 -7.72,7.19 -1.6,2.93 -4.79,6.92 -6.38,8.51 -1.33,1.6 -2.93,3.99 -2.93,6.12 0,2.39 1.6,5.59 2.93,10.11 4.79,9.58 7.98,24.21 7.98,34.33l-1.6 9.58c0,4.52 2.39,9.31 6.12,11.71 1.6,1.33 3.19,4.52 3.19,8.51 0.8,3.72 2.39,8.51 3.99,10.91 2.39,2.4 2.93,5.32 2.93,6.92 0,1.6 1.6,4.79 3.99,6.39 1.6,1.33 3.99,5.32 4.79,8.51 2.13,7.72 9.31,14.64 13.04,14.64 0.8,0 1.6,-0.53 2.39,-1.33 0.8,-0.8 7.98,-2.39 14.1,-2.39l5.59 0.8c2.13,1.6 11.44,1.6 21.82,1.6 7.72,0 15.43,0 19.43,-0.8 2.39,0 6.92,-2.4 10.11,-3.99 2.39,-1.6 3.99,-2.39 6.12,-2.39l6.39 1.6c3.72,0.8 6.92,2.39 6.92,4.79l0.8 2.13c0,1.6 -2.39,2.39 -9.31,2.39 -8.51,0 -31.93,4.79 -35.92,6.39 -1.6,0.8 -5.32,2.13 -9.31,2.13 -3.99,0.8 -6.92,1.6 -7.72,2.39l-1.6 0.8 -10.11 -1.6 -10.91 1.6c-0.8,0.8 -3.19,0.8 -4.79,0.8l-3.99 0 3.99 4.79c3.19,2.13 3.99,2.93 5.59,2.93l3.72 -0.8c3.19,-0.53 7.18,-1.33 10.11,-1.33 4.79,0 15.7,-2.39 18.89,-3.99 0.8,-0.8 6.12,-1.6 12.51,-1.6 5.32,0 16.23,-1.6 23.15,-3.19 6.38,-1.33 10.38,-2.13 12.51,-2.13l5.59 0.8 7.72 1.33 7.72 -0.8c20.49,-1.33 43.64,-2.13 56.95,-2.13l8.78 0c2.13,0.8 3.72,2.13 3.72,3.72 -14.64,58.54 -28.74,115.49 -44.44,174.82 -0.8,4.52 -1.6,9.31 -1.6,17.83l0 12.51c0.8,25.01 2.39,30.34 10.11,42.04 4.79,6.92 7.18,8.52 20.49,15.7 3.72,2.13 6.12,2.93 7.72,2.93 1.6,0 3.19,-0.8 4.52,-2.13 1.6,-1.6 3.19,-2.39 3.99,-2.39l0.8 0 6.12 -3.19c3.19,-1.6 4.79,-2.39 7.18,-2.39l14.9 0c3.73,0 9.31,0.8 12.24,1.6l3.99 0.8c2.39,0 4.79,-0.8 9.31,-3.19 3.99,-1.6 7.72,-4.52 7.72,-5.32 0,-1.6 1.6,-2.4 3.99,-2.4 0.8,0 2.39,0.8 2.39,1.6l0.8 1.6 -0.8 2.39c-1.6,2.93 -2.39,6.92 -3.19,13.84zm-141.03 -280.46c-1.6,0 -1.6,0 -1.6,-0.8l0.8 -1.6 0.8 0 1.6 0.8c0,0.8 0,1.6 -1.6,1.6z"/>
   <path class="fil0" d="M889.29 10.11c-0.8,0 -1.6,0.8 -2.39,1.6 -1.6,1.6 -3.19,2.39 -4.52,1.6 -2.4,-0.8 -2.4,-0.8 -2.4,2.39 0.8,1.6 0.8,2.39 0,2.39 -0.8,-0.8 -2.39,-0.8 -3.19,0 -3.19,2.93 -14.9,1.33 -12.51,-1.6 1.6,-3.19 -1.6,-3.99 -3.72,-1.6 -2.39,1.6 -5.59,3.19 -9.58,3.19 -12.24,0 -19.42,6.92 -19.42,18.63 0,6.92 -3.73,15.43 -6.12,15.43 -1.6,0 -2.39,0.8 -2.39,2.39 -0.8,0.8 -1.6,3.99 -2.39,7.98 -1.6,5.32 -1.6,6.12 0.8,10.11 3.19,3.72 3.19,3.72 0,6.92 -1.6,2.39 -2.39,4.79 -1.6,6.92 0,1.6 0,4.79 -1.6,7.18 -2.13,4.52 -2.13,4.52 0,7.72 1.6,1.6 3.19,2.39 3.99,2.39 1.6,0 5.59,3.73 5.59,5.32 0,1.6 0.53,1.6 2.13,1.6 0.8,0 3.19,1.6 3.99,3.19 2.39,2.39 2.39,3.99 0.8,12.51 -0.8,5.32 -1.6,16.23 -2.39,24.74 -4.52,62.53 -14.1,120.28 -29.54,184.94 -3.99,14.1 -6.39,27.14 -6.39,29.54 0,2.39 -1.6,8.52 -3.72,14.9 -10.11,29.54 -10.91,31.93 -10.91,44.44 -0.8,6.92 -0.8,14.63 -1.6,17.83 -0.8,3.19 -0.8,4.79 0,4.79 0.8,0 1.6,-0.8 1.6,-1.6 0,-0.8 1.6,-1.6 2.93,-1.6 2.39,0 3.19,-0.8 1.6,-0.8 -2.93,-1.6 0,-11.71 3.99,-11.71 3.19,0 -3.19,24.21 -6.92,29 -0.8,1.33 -1.6,4.52 -1.6,6.92 0,2.39 -0.8,6.92 -2.39,10.11 -1.6,3.99 -2.39,6.92 -1.6,8.52 2.39,3.99 -6.12,31.93 -9.31,31.93 -0.8,0 -0.8,0 0,-0.8 0,-0.53 0,-1.33 -0.8,-1.33 -0.8,0 -1.6,0.8 -2.4,2.13 0,0.8 -1.6,1.6 -3.19,1.6 -0.8,0 -1.33,1.6 -1.33,2.39 0,1.6 0.53,2.39 1.33,1.6 0.8,-0.8 0.8,0 -0.8,0.8 -6.92,6.12 -8.52,14.64 -3.73,21.82 1.6,2.39 2.39,4.52 1.6,5.32 -0.8,1.6 -1.6,3.99 -2.39,6.39 -0.8,2.39 -1.6,4.52 -3.19,6.12 -2.39,2.39 -2.39,4.79 0,4.79 0.8,0 0.8,0.8 -0.8,1.6 -1.6,1.6 -2.93,3.73 -3.72,6.92 -0.8,3.99 0,4.79 1.33,3.99 3.19,-1.6 3.19,0 0,3.72 -1.33,2.39 -2.93,4.79 -2.13,6.39 0,0.8 -0.8,5.32 -3.19,9.31 -1.6,3.99 -3.19,6.92 -3.19,6.92 0,0.8 0.8,0 2.39,0 3.19,-0.8 3.99,0 1.6,4.79 -0.8,2.4 -1.6,2.4 -1.6,0 0,-3.19 -3.99,-3.19 -3.99,0 0,0.8 -0.8,1.6 -1.33,1.6 -0.8,0 -1.6,1.6 -0.8,2.93 0.8,3.19 -3.99,9.58 -6.39,7.98 -1.6,-0.8 -1.6,-5.59 0,-7.19 1.6,-2.13 3.19,-7.72 1.6,-7.72 -1.6,0 -6.12,7.72 -6.12,10.91 0,0.8 -0.8,1.6 -1.6,2.39 -0.8,0 -1.6,3.19 -1.6,6.12 0,3.19 -0.8,6.39 -0.8,7.98 -0.8,0.8 0,2.13 1.6,2.13 2.39,0.8 2.39,0 2.39,-3.72 0,-4.79 5.32,-11.71 7.72,-8.51 0,0.53 2.39,-0.8 4.52,-4.79 1.6,-3.19 3.99,-5.59 3.99,-3.99 0,1.6 -0.8,3.19 -1.6,3.99 -0.8,0.8 -1.6,5.32 -2.93,10.91 -2.39,14.1 -5.59,24.21 -9.58,27.41 -2.13,2.93 -2.93,4.52 -2.13,7.72 0.8,3.19 0,5.32 -2.39,7.72 -1.6,2.39 -3.19,4.79 -3.19,6.38 0,0.53 -1.6,2.13 -3.19,3.73l-2.93 2.39 2.93 0c3.99,0 4.79,2.39 0.8,3.99 -0.8,0 -1.6,1.33 -0.8,2.13 0,1.6 0,2.39 -1.6,2.39 -0.53,0 -2.13,1.6 -2.13,5.59 0,3.72 -0.8,6.92 -1.6,7.72 -0.8,0.8 -0.8,2.39 0,3.19 0.8,1.6 -1.6,17.83 -3.19,19.43 0,0 -1.6,2.39 -3.19,4.79 -1.33,2.93 -2.13,2.93 0,2.93 0.8,-0.8 1.6,-0.8 1.6,0 0,1.6 -5.32,9.31 -6.92,9.31 -2.39,0 3.19,-27.14 6.92,-34.86 1.6,-3.19 1.6,-3.99 0,-3.99 -3.72,0 -6.12,6.12 -7.72,18.63 0,2.39 -0.8,4.79 -0.8,5.59 -2.39,2.93 -3.19,12.51 -1.6,13.84 1.6,0 1.6,2.39 1.6,3.99 0,4.79 1.6,4.79 4.79,0.8 2.93,-3.19 2.93,-3.19 2.13,-0.8 -0.8,1.6 -1.33,5.59 -2.13,7.72 0,2.39 -1.6,5.59 -3.19,7.18 -2.39,1.6 -2.39,1.6 -4.79,0 -1.6,-2.39 -2.13,-2.39 -2.93,0 -3.19,9.31 -3.19,10.91 -1.6,13.31 0.8,0.8 0.8,1.33 -1.6,1.33 -2.39,0 -2.39,0.8 -1.6,5.59 0,3.99 0,5.32 -3.99,7.72 -2.93,3.19 -2.93,4.79 -4.52,14.9 -14.1,98.19 -39.12,143.42 -42.04,239.22 -0.8,3.99 0,6.39 0.8,7.98 1.33,0.8 2.13,3.72 2.13,6.92 0,3.99 1.6,10.11 5.59,17.83 3.19,7.18 5.32,12.51 4.52,13.3 -0.8,0 -1.33,1.6 -1.33,3.19 -0.8,3.99 -5.59,4.52 -7.98,1.6 -2.93,-3.99 -3.72,-1.6 -1.6,2.93 0.8,2.39 2.39,4.79 2.39,6.39 0,0.8 0.8,3.99 2.39,6.12 3.19,3.99 3.99,6.38 2.4,12.51 -0.8,4.79 4.52,12.51 6.92,10.91 0.8,-0.8 0.8,-1.6 0,-2.93 -2.39,-1.6 -2.39,-3.19 0.8,-3.19 1.6,0 1.6,-1.6 1.6,-3.99 -0.8,-1.6 0,-3.19 0,-3.19 3.19,0 4.52,-0.53 5.32,-6.12 0.8,-3.19 1.6,-6.92 0.8,-8.51 -1.6,-5.59 3.19,-2.39 4.79,3.19l2.39 4.52 1.6 -3.99c0.53,-2.13 1.33,-4.52 1.33,-6.12 0,-4.79 7.98,1.6 8.78,6.92 2.13,9.58 8.51,18.89 8.51,11.71 0,-0.8 0,-2.13 0.8,-2.13 0.8,0 1.6,-3.19 1.6,-7.18 0,-6.12 0.8,-6.92 2.93,-5.32 3.99,1.6 5.59,1.6 5.59,-0.8 0,-1.6 1.6,-2.39 2.39,-2.39 2.13,0 2.13,0 0,2.39 -3.19,2.93 -3.19,7.72 0,7.72 4.52,0 6.12,-1.6 6.12,-6.12 0,-3.19 0.8,-3.99 1.6,-2.39 2.39,2.39 5.32,1.6 5.32,-0.8 0,-0.8 0.8,-2.4 1.6,-2.4 0.8,0 3.19,-1.6 4.79,-3.19 1.6,-1.6 3.99,-2.93 4.79,-2.93 0.53,0 1.33,-0.8 1.33,-1.6 0.8,-1.6 0,-2.39 -1.33,-1.6 -1.6,0.8 -2.39,0 -2.39,-2.39 0,-4.52 2.93,-6.12 5.32,-3.19 1.6,1.6 2.39,2.39 0.8,2.39 -0.8,0 -1.6,0.8 -0.8,1.6 0.8,0.8 1.6,0.8 2.39,0 0.8,0 0.8,0.8 0.8,3.19 -0.8,10.11 1.6,11.71 6.12,6.12 3.19,-3.73 2.39,-4.52 3.99,11.71 0,10.11 0,10.91 3.99,9.31 1.6,-0.8 2.13,-2.13 2.13,-5.32 0,-7.18 0.8,-9.31 4.79,-9.31 4.79,0 7.72,3.72 5.59,6.92 -2.39,3.99 -2.39,6.92 0.53,6.92 0.8,0 2.39,1.6 2.39,3.19 1.6,4.79 8.78,0.8 14.1,-6.92 1.6,-3.99 4.79,-6.39 4.79,-6.39 0.8,0 1.33,-1.6 2.13,-3.72 0.8,-3.19 2.39,-4.79 4.79,-4.79 2.39,0 5.32,-0.8 6.92,-2.39 2.39,-0.8 4.79,-1.6 6.39,-0.8 1.6,0 4.52,-1.6 8.51,-5.32 3.99,-3.99 6.92,-5.59 7.72,-4.79 1.6,2.39 3.19,13.3 1.6,14.1 -1.6,0.8 -1.6,2.39 -0.8,4.79 0.8,1.33 0,5.32 -1.6,7.72 -1.6,3.19 -1.6,3.99 0,3.99 1.6,0 7.98,-7.98 9.58,-11.71 0.53,-2.39 2.13,-2.39 4.52,-1.6 3.19,0.8 3.99,0 3.19,-1.6 -0.8,-2.4 4.52,-7.19 6.92,-5.59 3.19,0.8 12.51,-8.51 11.71,-11.71 -0.8,-0.8 -0.8,-2.13 0,-2.13 1.6,0 1.6,0 1.6,-1.6 0,-0.8 1.6,-2.39 3.19,-3.99 2.13,-2.39 2.93,-2.39 6.92,0 2.39,0.8 3.99,2.39 4.79,3.19 0.8,1.6 6.92,-3.19 6.92,-5.59 0,-2.13 3.99,-2.93 4.79,-0.8 0,0.8 1.33,-0.8 3.72,-3.72 1.6,-2.4 2.39,-3.99 1.6,-3.99 -1.6,0.8 -1.6,0 -0.8,-2.39 0.8,-3.73 4.79,-6.92 7.18,-6.92 1.33,0 2.13,-0.8 2.13,-2.39 0,-1.6 0.8,-3.72 2.39,-3.72 4.79,-1.6 7.72,-5.59 7.72,-8.78 0,-2.93 0,-3.73 1.6,-2.93 2.39,0.53 8.51,-4.79 8.51,-7.98 0,-2.93 2.39,-2.93 4.79,-1.6 3.99,3.19 6.39,7.98 5.59,14.9 0,5.59 0,6.39 1.33,5.59 2.39,-2.39 4.79,-9.58 6.39,-15.7 0,-3.19 1.6,-6.12 2.39,-6.12 2.13,-0.8 2.13,-1.6 0.8,-3.99 3.72,-32.73 10.91,-72.64 18.63,-110.7 0.8,-3.99 1.6,-8.51 2.39,-10.91 0,-1.6 0.8,-4.79 1.6,-6.39 2.13,-4.52 5.32,-18.63 4.52,-22.62 -0.8,-2.13 0,-3.72 0.8,-3.72 2.39,0 4.79,-11.71 1.6,-13.31 -0.8,-0.8 -0.8,-1.6 0.8,-1.6 1.6,-0.8 2.4,-2.39 1.6,-3.72 0,-1.6 0,-3.99 0.8,-5.59 0.8,-1.6 1.6,-5.59 2.13,-9.31 0.8,-7.18 0.8,-7.18 -1.33,-4.79 -2.39,3.99 -7.98,20.22 -7.98,26.61 0,2.39 -0.8,4.52 -0.8,5.32 -2.13,1.6 -5.32,17.3 -3.72,19.69 0.8,1.33 -3.99,5.32 -7.18,5.32 -1.6,0 -2.13,0.8 -2.13,1.6 0,1.6 -0.8,1.6 -1.6,0 -0.8,-1.6 -1.6,-0.8 -2.39,2.39l-0.8 3.72 -1.6 -3.72c-1.6,-3.19 -1.6,-3.99 0,-6.39 0.8,-2.13 1.6,-3.72 0.8,-3.72 0,0 0,-0.8 0.8,-1.6 1.6,-1.6 1.6,-2.39 0.8,-3.19 -1.6,-0.8 -0.8,-2.39 0.8,-3.99 1.6,-1.33 3.19,-4.52 3.19,-6.12 0,-1.6 0.53,-3.99 2.13,-3.99 0.8,-0.8 1.6,-2.13 1.6,-3.73 0,-1.6 1.6,-3.99 3.99,-5.59 2.39,-2.39 2.39,-2.93 0,-2.93 -0.8,0 -2.39,-0.8 -2.39,-2.39 0,-1.6 0.8,-1.6 2.39,-1.6 1.6,0.8 2.39,0.8 0.8,-1.6 -0.8,-1.6 -2.39,-3.19 -3.19,-2.39 -0.8,0.8 -0.8,-0.8 -0.8,-3.73l1.6 -4.79 -5.59 1.6c-4.52,0.8 -5.32,0.8 -3.72,-2.39 0.8,-1.6 3.19,-3.19 4.52,-3.99 1.6,-1.33 3.99,-3.72 4.79,-6.12 2.39,-3.99 2.39,-4.79 0,-6.12 -2.39,-1.6 -3.19,-6.39 0,-7.18 1.6,-0.8 1.6,-2.39 0.8,-5.32 -0.8,-2.39 -0.8,-3.99 0,-3.99 0.8,0 1.6,-1.6 2.39,-3.99 0,-2.13 1.6,-2.93 2.93,-2.93 2.39,0 3.19,-1.6 3.19,-5.59 0.8,-2.39 0,-4.52 -0.8,-5.32 -0.8,0 -0.8,-0.8 0,-2.39 0.8,-0.8 1.6,-5.59 1.6,-9.31 0,-4.79 0,-8.78 0.8,-8.78 0.8,-0.53 0.8,-2.93 0.8,-6.12 -0.8,-4.79 -0.8,-5.32 3.99,-7.72 2.93,-1.6 3.72,-2.39 2.13,-4.79 -1.33,-0.8 -0.8,-2.39 1.6,-5.32 4.79,-4.79 7.98,-6.39 21.02,-10.11 42.84,-19.69 89.67,-7.98 134.91,-16.5 53.75,-10.91 123.2,3.19 172.43,-19.43 1.33,0.8 4.52,0.8 6.12,0 1.6,-1.6 3.99,-1.6 6.92,-0.8 3.19,0.8 4.79,0.8 5.59,-1.6 1.6,-1.6 3.99,-2.39 9.31,-3.19 10.11,-0.8 24.21,-3.73 26.61,-6.92 1.6,-1.6 0.8,-1.6 -2.39,-1.6 -6.92,0 -6.92,-3.19 0.8,-7.72 3.73,-2.39 6.92,-3.99 7.72,-3.19 0,0.8 2.39,-0.8 3.99,-2.39 4.52,-3.72 4.52,-6.12 0.8,-5.32 -1.6,0.8 -0.8,-0.8 2.39,-3.99 2.93,-3.19 4.52,-5.32 3.73,-6.92 0,-3.19 0.8,-3.99 3.99,-5.59 3.19,-0.8 3.19,-0.8 3.19,0.8 -1.6,3.19 0.53,2.39 2.93,-0.8 1.6,-1.6 4.79,-3.19 7.18,-3.72 5.32,-0.8 8.51,-5.59 6.12,-8.78 -0.8,-0.8 -0.8,-3.73 -0.8,-7.72 0.8,-5.32 0,-6.92 -3.19,-3.99 -2.13,2.39 -7.72,0 -9.31,-3.72 -1.6,-4.79 3.19,-12.51 7.18,-10.91 3.72,0.8 9.31,-2.39 9.31,-5.59 0,-0.8 2.39,-4.52 4.52,-6.92 5.59,-3.99 5.59,-4.79 1.6,-4.79 -1.6,0 -3.72,-0.8 -5.32,-2.39 -0.8,-0.53 -0.8,-1.33 0,-1.33 2.13,1.33 4.52,-2.39 5.32,-9.58 0,-2.93 0.8,-6.92 1.6,-9.31 0,-1.6 0,-3.73 -0.8,-5.32 -1.6,-2.39 -1.6,-3.99 0,-4.79 3.19,-2.4 4.79,-9.31 2.39,-10.11 -1.6,-0.8 -1.6,-1.6 0,-2.39 2.39,-0.8 -0.8,-6.92 -3.99,-7.72 -1.6,-0.8 -2.39,-1.6 -2.39,-3.19 0,-0.8 -0.53,-2.93 -0.53,-4.52 -0.8,-2.39 0,-3.19 2.13,-4.79l3.99 -2.39 -3.19 -1.33c-2.39,-0.8 -3.72,-3.19 -4.52,-3.99 -0.8,-2.39 1.6,-6.39 2.93,-6.39 0.8,0 3.99,-2.13 6.39,-4.52 2.39,-2.39 7.72,-6.39 11.71,-8.52l6.92 -4.79 -3.19 -2.39c-2.93,-2.39 -2.93,-2.39 -0.53,-3.72 1.33,-0.8 2.13,-1.6 2.13,-2.39 -0.8,-3.19 0,-3.99 3.99,-5.59 2.4,-1.6 4.79,-1.6 6.12,-1.6 2.39,0.8 2.39,0 2.39,-1.33 -0.8,-2.39 -0.8,-2.39 2.39,-1.6 3.99,0.8 3.99,0.8 1.6,-0.8 -2.39,-1.6 -1.6,-2.39 3.72,-6.39 3.19,-2.92 7.18,-5.32 7.98,-5.32 0.8,0 1.6,-0.8 0.8,-3.19 -0.8,-2.39 -0.8,-3.72 0,-4.52 2.13,-2.39 0,-4.79 -3.99,-4.79 -3.19,0 -20.22,-5.59 -31.93,-10.11 -64.66,-3.19 -126.4,4.52 -189.46,9.31 -59.34,3.99 -116.82,9.31 -177.75,15.7l-7.72 0.8 2.93 -4.79c3.19,-3.19 4.79,-9.31 7.18,-18.63 2.39,-12.51 2.39,-13.3 0,-14.9 -1.6,-1.6 -2.39,-1.6 -5.59,1.6 -1.6,2.39 -2.93,6.12 -2.93,9.31 0,3.19 -0.8,4.79 -2.39,4.79 -1.6,0 -2.39,-1.6 -1.6,-7.19 0,-4.52 0,-6.12 -1.6,-5.32 -0.8,0 -1.6,0 -1.6,-0.8 0,-0.8 0.8,-1.6 1.6,-1.6 1.6,0 9.31,-7.72 10.11,-9.31 0,-0.8 0,-2.39 0,-4.79 0.8,-1.6 0,-2.93 -2.39,-2.93 -2.93,-1.6 -2.13,-4.79 1.6,-3.99 1.6,0 2.39,-0.8 3.19,-3.19 0,-1.6 1.6,-3.19 2.39,-3.99 2.39,-0.53 2.39,-2.93 0,-2.93 -2.39,0 -3.99,-4.79 -2.39,-6.39 0.8,-1.6 0.8,-2.13 0.8,-2.93 -0.8,0 0,-0.8 1.6,-1.6 2.39,-1.6 2.93,-4.79 0,-6.39 -1.6,0 -1.6,-0.8 0,-2.13 2.39,-2.39 2.39,-5.59 0.8,-10.38 -0.8,-1.33 0,-4.52 1.6,-7.72 1.33,-2.39 2.13,-6.92 2.13,-9.31 0,-2.4 0.8,-5.59 2.39,-5.59 0.8,-0.53 3.19,-22.35 3.19,-29.54 -0.8,-6.12 -0.8,-13.3 0,-15.43 0.8,-3.99 2.39,-3.99 7.72,-5.59 50.82,-6.92 108.3,-6.92 149.81,-6.92 88.87,-1.6 171.36,-7.18 246.14,-7.18 42.31,-0.8 46.83,-2.13 54.82,-17.03 1.33,-3.19 4.52,-6.39 6.12,-6.39 1.6,-0.53 3.99,-1.33 5.32,-2.93 0.8,-0.8 4.79,-2.39 8.78,-2.39 6.92,0 11.71,-3.19 8.52,-4.79 -2.39,-0.8 0.8,-6.92 4.52,-10.11 2.39,-1.6 2.39,-2.39 -0.53,-4.52 -2.39,-2.39 -3.19,-4.79 -3.19,-7.98 0.8,-3.73 0,-6.12 -2.39,-8.52 -4.79,-4.52 -3.19,-6.12 5.59,-6.92 3.73,-0.8 7.72,-2.39 8.52,-3.19 0.8,-1.6 3.19,-2.39 3.72,-2.39 1.6,0 6.39,-0.8 10.38,-1.6 6.12,-0.8 6.92,-1.33 7.72,-5.32 -1.6,-7.72 3.19,-12.51 5.32,-17.3 2.39,-0.53 5.59,-3.72 7.98,-5.32l3.72 -3.99 -3.72 0c-3.99,0 -4.79,-0.8 -0.8,-3.72 2.13,-1.6 2.13,-1.6 -1.6,-1.6 -2.39,0 -3.99,0.8 -4.79,1.6 -1.6,2.13 -2.39,1.6 -5.32,-4.79 -3.19,-6.12 -2.39,-6.92 5.32,-11.71 4.79,-2.39 3.99,-4.52 -1.6,-5.32 -2.13,-0.8 -3.72,-1.6 -3.72,-1.6 0.8,-0.8 0.8,-1.6 0.8,-2.39 0,-0.8 0.8,-1.6 1.6,-0.8 2.13,0.8 15.43,-4.79 15.43,-6.92 0,0 -0.8,-1.6 -1.6,-2.39 -1.6,-1.6 -1.6,-2.39 0,-3.99 3.19,-2.39 5.59,-6.92 5.59,-11.71 0,-1.6 1.6,-5.32 2.93,-6.92 2.39,-3.19 2.39,-7.72 -0.53,-7.72 0,0 -0.8,-0.8 0,-2.39 0,-0.8 0,-2.39 -0.8,-3.19 -1.6,0 -0.8,-1.6 1.33,-3.99 3.99,-2.13 4.79,-3.72 4.79,-13.04 0,-5.59 0.8,-10.11 1.6,-10.91 0,-1.6 0,-3.99 -1.6,-6.39 -0.8,-1.6 -2.39,-5.32 -3.19,-7.72 -1.6,-4.79 -16.23,-11.71 -21.02,-10.11 -1.6,0 -6.12,-2.39 -13.31,-7.72 -11.44,-8.78 -15.43,-10.38 -26.34,-10.91 -3.99,0 -9.31,-0.8 -11.71,-1.6 -3.19,-0.8 -5.59,0 -5.59,0.8 -1.33,2.13 -10.11,1.33 -27.94,-0.8 -21.02,-2.39 -42.04,-3.99 -88.87,-3.99 -42.84,-0.8 -88.87,-3.19 -93.66,-5.32 -1.33,-0.8 -5.32,-0.8 -9.31,-0.8 -5.32,0.8 -6.92,0.8 -7.72,-2.39 -0.8,-1.6 -2.39,-3.19 -3.99,-3.19 -1.6,0 -18.63,0.8 -38.85,1.6 -52.42,0.8 -92.07,2.39 -117.88,3.99 -52.15,2.13 -102.71,6.92 -155.93,13.04 -29.54,3.19 -46.57,3.19 -49.76,0 -1.6,-1.33 -5.59,-2.13 -8.52,-2.13 -3.19,0 -8.51,-1.6 -12.51,-3.99 -6.38,-3.19 -13.3,-4.79 -24.21,-5.59 -3.99,0 -4.79,0 -4.79,-2.93 0.8,-3.19 -2.13,-5.59 -5.32,-5.59zm-117.61 470.19c0,0 -0.8,0.8 -2.39,2.39 -2.39,2.13 -2.39,2.93 -1.6,2.93 0.8,0 1.6,-1.6 2.39,-2.93 0.8,-1.6 1.6,-2.39 1.6,-2.39zm-7.18 18.63c0,0 0,0 -0.8,0 -0.8,0.8 -1.6,1.6 -1.6,2.39 0,0.8 0,2.39 -0.8,2.39 -2.13,2.13 0,2.93 2.39,0.8 2.39,-1.6 3.19,-5.59 0.8,-5.59zm-16.23 56.94c-0.8,0 -2.39,2.39 -3.99,4.79 -3.19,6.12 -3.19,6.92 0,6.92 2.39,0 3.19,-0.8 2.39,-2.39 0,-1.6 0,-3.72 1.6,-6.12 1.6,-2.4 1.6,-3.19 0,-3.19zm13.04 6.12c0.8,-0.53 1.6,0 1.6,1.6 -0.8,0.8 -1.6,1.6 -2.93,1.6 -1.6,0 -2.39,0.8 -2.39,0 0,0 0.8,-0.8 0.8,-1.6 0.8,-1.6 1.6,-1.6 2.93,-1.6zm-2.13 7.98c1.6,0 0,6.92 -1.6,8.51 -0.8,0 -1.6,-0.8 -1.6,-2.39 0,-3.19 1.6,-6.12 3.19,-6.12zm-15.7 6.12c-0.8,0 -2.39,0 -1.6,0.8 0.8,0.8 1.6,0.8 3.19,0 0.8,0 0.8,-0.8 -1.6,-0.8zm-4.52 14.1c-0.8,0 -1.6,0.8 -1.6,1.6 0,0.8 0.8,1.6 0.8,1.6 0,0 0.8,-0.8 1.33,-1.6 0,-0.8 0,-1.6 -0.53,-1.6zm-4.79 13.31c-0.8,0 -0.8,0.8 -0.8,2.13 0,0.8 0,1.6 0.8,0.8 0.8,0 1.6,-1.33 1.6,-2.13 0,-0.8 -0.8,-0.8 -1.6,-0.8zm-10.91 37.25c-1.6,0 -1.6,1.6 -1.6,4.79 0,3.19 0.8,4.52 0.8,3.19 0.8,-0.8 1.6,-3.19 2.39,-3.99 0.8,-1.6 0.8,-3.19 -0.8,-3.19 -0.8,-0.8 -0.8,-0.8 -0.8,-0.8zm-2.39 17.3c0,0 -0.8,0.8 -1.6,1.6 -2.39,2.93 -2.39,3.72 -0.8,3.72 0.8,0 1.6,-1.6 2.39,-2.93 0,-2.39 0,-3.19 0,-2.39zm-1.6 10.11c-0.8,0 -0.8,0 -1.6,0 -2.13,1.6 -2.13,5.32 0,4.52 0.8,0 1.6,-1.33 2.39,-2.93 0,-0.8 0,-1.6 -0.8,-1.6zm-1.6 6.92c0,0 -0.8,0.8 -1.33,0.8 -2.39,2.39 -2.39,4.79 -0.8,4.79 0.8,0 1.33,-1.6 2.13,-3.19 0,-1.6 0,-2.39 0,-2.39zm-4.52 15.7c-0.8,0 -1.6,0.8 -1.6,0.8 0,0.8 0.8,1.6 1.6,1.6 0.8,0 1.6,-0.8 1.6,-1.6 0,-0.8 -0.8,-0.8 -1.6,-0.8zm-0.8 3.73c0,0.8 -0.8,0.8 -1.6,2.39 -2.39,3.19 -2.39,5.59 0,3.19 1.6,-0.8 2.39,-2.39 2.39,-3.99 0,-0.8 0,-1.6 -0.8,-1.6zm-0.8 8.78c-0.8,0 -0.8,0.8 -1.6,0.8l0.8 0c-2.39,1.33 -2.39,3.72 -0.8,3.72 2.39,0 3.99,-2.93 2.39,-3.72 0,0 0,-0.8 -0.8,-0.8zm276.74 70.78c0,0 -0.8,0 -1.6,0.8 -3.72,2.39 -6.92,11.71 -4.52,14.9 2.13,3.19 -0.8,16.23 -3.99,17.83 -3.19,0.8 -2.39,4.79 0.8,4.79 2.39,0 3.99,-5.59 7.72,-25.01 0,-3.19 1.6,-7.72 1.6,-10.11 0.8,-2.39 0.8,-3.19 0,-3.19zm-25.81 38.32c-0.8,0 -1.6,0 -2.13,0.8 -1.6,0 -2.39,1.6 -2.39,1.6 0,2.13 2.39,1.6 3.73,-0.8 1.6,-1.6 1.6,-1.6 0.8,-1.6zm13.31 2.39c-0.8,0 -0.8,1.6 -0.8,2.93 0,3.19 1.6,3.99 3.19,0.8 0.8,-2.13 0,-3.72 -2.39,-3.72zm-1.6 21.02c-0.8,0 -0.8,0 -0.8,0 -0.8,0.8 -1.33,0.8 -1.33,1.6 0,0 0.53,0.8 1.33,0.8 0.8,0 1.6,-0.8 1.6,-1.6 0,-0.8 -0.8,-0.8 -0.8,-0.8zm-91.8 238.42c1.33,0 2.92,2.39 1.33,3.19 0,0.8 -1.33,0.8 -2.13,0 -0.8,-1.6 -0.8,-2.39 0,-2.39 0.8,-0.8 0.8,-0.8 0.8,-0.8zm-240.28 7.98c0,0 -0.8,1.33 -0.8,2.93 0,1.6 0.8,3.19 1.6,3.19 0.8,0 0.8,-1.6 0.8,-3.19 -0.8,-1.6 -1.6,-2.93 -1.6,-2.93zm5.59 14.63c0,0.8 0,0.8 0,0.8 -0.8,0 -1.6,1.6 -1.6,2.39 0,0.8 0.8,0.8 1.6,0.8 0.8,0 0.8,-0.8 0.8,-2.39 0,-0.8 0,-1.6 -0.8,-1.6zm52.15 3.19c1.6,0 3.99,6.12 3.19,7.72 -0.8,0 -1.6,-1.6 -2.39,-3.19 -0.8,-2.13 -0.8,-3.72 -0.8,-4.52zm7.72 2.39c0.8,0 0.8,0.8 0.8,1.6 -0.8,0.53 -1.6,1.33 -1.6,1.33 -0.8,0 -0.8,-0.8 -0.8,-1.33 0,-0.8 0.8,-1.6 1.6,-1.6zm3.19 0.8c0.8,0 0.8,0 0.8,0 1.6,0.8 0.8,6.12 -0.8,6.12 0,0 -0.8,-1.6 -0.8,-3.19 0,-1.6 0.8,-2.93 0.8,-2.93zm46.83 12.51c-0.8,0 -1.6,0 -2.39,0.53 -1.6,1.6 -0.8,3.19 1.6,2.39 0.8,-0.8 2.39,-1.6 2.39,-2.39 0,-0.53 -0.8,-0.53 -1.6,-0.53zm76.37 1.33c-0.8,0 -0.8,0.8 -0.8,1.6 0,1.6 0.8,2.39 0.8,1.6 0.8,0 0.8,-1.6 0,-2.39 0,-0.8 0,-0.8 0,-0.8zm-95 3.19c-0.8,0 -1.6,0.8 -1.6,0.8 0,0.8 0.8,1.6 1.6,1.6 0.53,0 1.33,-0.8 1.33,-1.6 0.8,-0.8 0,-0.8 -0.8,-0.8 0,0 -0.53,0 -0.53,0z"/>
   <path class="fil0" d="M1692.89 1100.03c0,0 3.19,0 6.92,-1.6 3.19,-0.8 10.11,-2.39 14.1,-3.99 4.79,-0.8 11.71,-2.13 16.5,-3.72l11.71 -3.99c6.92,-1.6 14.64,-5.32 27.14,-12.51 14.1,-8.51 27.41,-13.84 61.73,-23.42 16.23,-4.52 28.74,-9.31 40.45,-15.43l9.31 -4.79c9.31,-3.72 24.21,-11.71 26.61,-13.3 1.6,-1.33 7.72,-4.52 13.84,-7.72l18.89 -9.31c0.8,-0.8 3.72,-2.39 6.12,-4.79 1.6,-1.6 3.19,-2.93 3.99,-2.93 74.77,-46.83 120.01,-114.69 164.45,-190.26 14.9,-22.62 23.42,-49.23 33.53,-71.05 1.6,-3.19 2.39,-7.72 3.19,-10.91 0,-3.19 1.6,-6.92 1.6,-7.72 3.72,-4.79 8.52,-16.5 8.52,-21.82 0.8,-3.19 1.6,-6.38 2.39,-7.18 0,-0.53 1.33,-2.13 1.33,-4.52 45.23,-71.85 51.62,-158.33 77.97,-237.09 17.3,-51.35 49.23,-105.91 54.02,-155.13 0,-1.6 0,-2.93 0.53,-2.93 0.8,0 0.8,-1.6 0.8,-3.99l0 -3.19c0,-5.32 0.8,-12.51 3.19,-19.43 0.8,-1.6 0.8,-3.19 1.6,-3.99 0,-1.6 0.8,-2.93 1.6,-3.72 0.8,-0.8 1.6,-2.39 1.6,-3.99 0,-0.8 0.8,-4.79 2.13,-7.72 1.6,-3.99 2.4,-8.78 2.4,-11.71 0,-3.19 0.8,-6.38 1.6,-7.98 0.8,-0.53 0.8,-2.93 0.8,-6.92l0 -4.79c0,-10.91 0.8,-14.64 4.79,-23.95l2.13 -7.98c0,-0.8 0,-2.13 0.8,-2.93 1.6,-0.8 1.6,-2.39 1.6,-3.19 0,-1.6 -1.6,-3.19 -3.19,-3.19 -1.33,0 -2.13,0 -2.13,-0.8l2.93 -3.72c2.39,-3.19 3.99,-4.79 3.99,-6.39 0,-1.6 -1.6,-3.19 -3.19,-4.52 -1.6,-0.8 -2.13,-2.39 -2.13,-3.99 0,0 0,-0.8 0.53,-0.8l0.8 -2.39 0 -1.6c0,-1.33 -0.8,-2.13 -0.8,-2.13l-0.53 0c0,-0.8 0.53,-1.6 1.33,-2.39 1.6,-1.6 3.19,-3.99 3.19,-5.59 0,-0.8 1.6,-3.72 3.99,-5.32 2.93,-2.39 3.73,-3.19 3.73,-5.59l0 -2.13c0,-2.39 -0.8,-3.99 -1.33,-3.99 0,-0.8 0.53,-1.6 2.13,-2.39 3.99,-3.19 7.98,-11.71 7.98,-15.7 0,-1.33 0.8,-2.93 1.33,-3.72l0.8 -2.4 -0.8 -5.32c0,-1.6 0,-3.19 0.8,-3.99l0 -0.8c0,-0.8 0,-0.8 -0.8,-0.8l-4.52 0.8c-2.39,0.8 -3.99,0.8 -5.59,0.8 -1.33,0 -2.13,0 -3.73,-0.8 -1.6,-1.6 -2.39,-1.6 -3.99,-1.6l-1.6 0.8c-1.6,1.6 -2.93,2.39 -3.72,2.39 -0.8,0 -0.8,0 -0.8,-0.8 0,-0.8 0.8,-1.6 2.13,-1.6 1.6,-0.8 3.19,-3.19 3.99,-6.12l0.8 -3.19c0,-3.19 -2.39,-4.79 -5.32,-4.79l-10.91 1.6c-3.19,0 -4.79,-0.8 -4.79,-2.39l1.6 -10.91 -0.8 -3.72 -6.39 2.93 -10.11 7.18c-5.32,3.72 -6.12,4.52 -6.12,7.72l0 1.6c0,2.39 -1.6,4.79 -3.99,6.92 -2.93,4.79 -4.52,5.59 -9.31,5.59 -3.99,0.8 -5.32,1.6 -6.12,3.72 -0.8,1.6 -1.6,1.6 -2.39,1.6l-0.8 -0.8c-1.6,-0.8 -1.6,-1.33 -1.6,-2.13 0,-1.6 0.8,-3.19 3.19,-4.79l3.19 -3.99 0 -0.8 1.33 -4.52 3.99 -9.31c0.8,-2.39 1.6,-3.99 1.6,-5.59l0 -0.8c0,0 0,-1.6 1.6,-2.39 1.6,-2.13 4.52,-9.31 4.52,-13.04l-1.6 -3.99 0.8 -1.6c1.6,-0.8 2.39,-3.19 3.19,-5.32 0,-3.19 0,-3.99 -1.6,-3.99l-4.52 0.8c-0.8,0 -1.6,-0.8 -1.6,-1.6 0,-1.6 0.8,-3.19 1.6,-3.99 0.8,-0.53 0.8,-2.13 0.8,-4.52l0 -1.6 0.8 -4.79 1.33 -5.32c0,-1.6 -0.8,-2.39 -1.33,-2.39l-1.6 0.8c0,0 -0.8,2.39 -3.19,4.79l-11.71 16.23c-1.6,2.39 -4.79,6.38 -7.72,7.72 -3.19,2.39 -4.79,3.99 -4.79,4.79l0.8 1.6c0.8,0.8 0.8,1.6 0.8,2.39 0,0.8 -0.8,2.93 -3.19,3.72l-0.8 0c-2.13,0 -3.73,-1.6 -3.73,-2.93 0,-1.6 0.8,-2.39 2.13,-3.19l0.8 -2.4 0 -1.6c0,-1.6 0.8,-5.32 2.39,-7.72l1.6 -5.59 -2.39 0.8c-2.93,1.6 -5.32,3.19 -5.32,5.59l0 0.8c0,1.6 -1.6,3.73 -3.19,5.32l-3.99 2.39 -2.13 -0.8c-1.6,-0.8 -3.19,-1.6 -3.19,-2.39 0,-0.8 4.52,-3.72 7.72,-5.32 1.6,0 2.39,-1.6 2.39,-2.39 0,-0.8 -0.8,-1.6 -2.39,-1.6 -1.6,0 -3.19,-0.8 -3.19,-1.6l-0.53 -1.33 -2.39 0 -1.6 -0.8c-1.6,0 -3.99,2.93 -3.99,6.12 0,3.19 -0.8,3.99 -2.93,4.79 -3.19,0.8 -3.99,1.33 -3.99,2.93 0,0.8 0,1.6 1.6,2.39 0.8,0.8 2.39,3.19 2.39,4.79 0,2.93 0,3.72 -3.19,3.72 -2.39,0 -4.79,0.8 -4.79,1.6l0 1.6c0,1.6 2.39,3.99 3.99,3.99l1.6 0c1.6,0 6.12,2.13 6.12,3.72 0,1.6 -10.11,3.99 -14.1,3.99l-0.53 0c-0.8,0 -1.6,-0.8 -1.6,-2.39 0,-2.39 -4.79,-7.72 -7.98,-7.72 -0.8,0 -1.33,-0.8 -2.13,-1.6l0.8 -1.6 0.53 1.6 1.6 0.8 0 -1.6c0,-1.6 1.6,-3.19 3.19,-3.99 1.6,-0.53 3.19,-2.13 3.19,-2.93l-0.8 -0.8 -1.6 0.8c-1.6,0 -3.19,-4.79 -3.19,-10.11 0,-2.39 0.8,-4.79 1.6,-5.59l0.8 -1.6 -0.8 -2.13 0.8 0c0.8,0 1.6,-0.8 1.6,-2.39 0,-1.6 0,-2.39 -0.8,-2.39 -1.6,0 -3.99,2.39 -7.72,6.12 -3.19,3.19 -6.39,7.18 -7.98,7.98 -2.13,0.8 -7.72,14.64 -7.72,17.83 0,3.19 -2.39,5.59 -6.12,6.12 -2.39,0.8 -3.19,2.39 -3.99,5.59 -1.6,4.79 -5.59,7.72 -10.11,7.72 -1.6,0 -3.19,0.8 -4.79,1.6 -1.6,1.6 -6.12,2.39 -8.52,2.39 -1.6,0 -3.19,0 -3.19,-0.8 0,-1.6 5.59,-5.32 12.51,-14.1l-0.8 -6.92c-0.8,-3.99 -2.13,-7.72 -2.93,-7.72l-2.39 -0.8c-2.39,0 -6.39,1.6 -7.18,2.93l-4.52 2.39c-4.79,1.6 -7.18,6.38 -7.18,12.51l0.8 5.59c0,3.72 0,7.72 -0.8,7.72 -0.53,0.8 -3.73,1.6 -6.92,2.39l-2.39 0c-2.13,0 -3.72,-0.8 -6.12,-3.99 -3.99,-3.99 -6.39,-4.79 -8.52,-4.79l-2.39 0 -2.39 1.6 0.8 3.19c0,3.19 -4.79,6.92 -10.91,8.51l-7.72 0.8c-0.8,0 -2.39,0.8 -3.19,2.39l-1.6 0.8c-0.8,0 -1.6,0 -2.39,-0.8l-1.6 -3.99c-0.53,-0.8 -1.33,-2.93 -2.93,-4.52 -0.8,-0.8 -0.8,-1.6 -0.8,-3.19 0,-1.6 0.8,-2.4 3.19,-2.4l1.33 0c2.4,0 12.51,-2.92 14.1,-4.52l0 -0.8c0,0 -1.6,-0.8 -3.99,-0.8 -2.13,0 -3.73,0 -3.73,-0.8 0,-0.8 -1.6,-2.39 -2.39,-2.39l-0.8 0c-3.99,0 -8.52,3.19 -8.52,5.59l0 1.33 -3.19 -1.33 -0.8 0.8 0.8 0.53 -0.8 1.6c-0.8,0 -1.6,1.6 -1.6,3.19 0,3.19 -3.72,8.51 -5.32,8.51l-0.8 -0.8 -2.39 -0.8c-0.8,0 -1.6,0.8 -1.6,1.6 0,0.8 -2.13,3.99 -5.32,7.98 -2.39,2.93 -6.39,10.11 -7.98,14.64 -1.33,4.79 -3.72,10.11 -5.32,12.51 -0.8,2.39 -2.39,8.52 -3.19,14.1 -0.8,5.32 -2.39,11.71 -3.72,14.64 -0.8,2.39 -1.6,5.59 -1.6,9.58l0.8 10.11c0,7.72 0,15.43 -0.8,17.03 -0.8,1.6 -1.6,9.31 -2.39,17.3 -1.6,9.31 -3.99,22.62 -8.51,36.46 -32.73,144.22 -83.55,300.15 -113.09,431.87 -10.11,42.84 -23.41,88.08 -35.92,128.79 -5.32,18.63 -16.23,46.03 -25.81,68.65l-6.12 14.63c0,0.8 -1.6,6.39 -4.79,10.91 -3.72,7.18 -8.51,14.1 -18.63,24.21 -10.11,10.11 -12.51,13.3 -14.64,13.3l-1.6 -0.8 -6.38 -4.79 -6.12 -6.92 -4.79 -3.99c-25.01,-31.93 -40.45,-59.87 -46.03,-94.2 -1.6,-9.31 -2.13,-21.02 -2.13,-34.33 0,-67.85 19.42,-177.75 31.93,-245.6 22.62,-124 73.97,-261.04 94.2,-364.82 0,-2.39 0.8,-5.32 1.6,-7.72l4.79 -18.09c1.33,-6.12 2.93,-13.84 2.93,-17.03 0,-3.99 0,-8.52 0.8,-10.91l0.8 -3.19c0,-2.39 -0.8,-3.99 -3.19,-6.12 -1.33,-2.39 -2.93,-4.79 -2.93,-6.39 0,-1.6 -0.8,-2.93 -1.6,-4.52 -0.8,-0.8 -3.19,-3.19 -3.99,-4.79 -2.93,-3.99 -24.21,-14.9 -32.73,-16.23 -3.72,-0.8 -11.71,-3.19 -17.83,-5.59 -12.51,-5.32 -21.82,-8.51 -31.13,-8.51l-7.18 0.8 -21.02 0c-8.52,0 -24.21,0.8 -28.74,1.6l-15.7 0.8 -11.71 -0.8 -2.39 -0.8 -2.93 0.8 -12.51 0.8c-4.79,0.8 -10.11,0.8 -11.71,1.33l-14.1 0.8c-7.72,0 -14.1,0.8 -25.01,4.79 -7.72,2.39 -14.64,4.79 -15.44,5.32 -0.8,0.8 -2.39,3.19 -3.19,5.59 -1.6,3.19 -4.52,5.32 -6.92,6.92 -4.79,3.19 -4.79,3.19 -4.79,9.31l0.8 4.79 -0.8 3.19c-0.8,0.8 -1.6,2.39 -1.6,3.73 0,1.6 -0.8,6.38 -2.39,10.91l-6.12 18.1 0.8 1.6c0,0 -0.8,2.13 -2.4,3.73 -1.6,2.39 -3.19,4.79 -3.19,6.38 -20.22,77.17 -46.57,149.54 -65.46,225.92 -17.03,71.84 -31.13,142.89 -43.64,216.87 -7.72,53.75 -14.64,103.51 -21.02,158.32l-1.6 10.91c0,19.43 -1.6,37.25 -1.6,56.68 0,12.51 0.8,25.01 3.19,37.52 0.8,63.86 42.04,151.14 92.87,191.85l11.71 9.31c48.96,38.05 93.4,38.85 141.83,44.44zm374.93 -1042.29c2.39,-0.8 3.99,-3.99 3.99,-4.79l0 -0.8 -1.6 0 -1.6 1.6c-1.6,1.6 -1.6,2.39 -1.6,3.19 0,0.8 0,0.8 0.8,0.8zm83.55 -22.62c2.13,0 5.32,-3.19 5.32,-5.59l0 -0.53 -4.52 0 -3.99 2.13 -0.8 2.39c0,0.8 1.6,1.6 3.99,1.6zm-35.92 21.02c0.8,0 1.6,-0.8 1.6,-2.39l-0.8 -3.73c0,-0.8 0.8,-1.6 1.6,-1.6l0.8 0 0 -1.6c0,-0.8 0.8,-1.6 1.33,-2.39 0.8,-0.8 1.6,-1.6 1.6,-3.19l0 -2.13c-0.8,0 -1.6,1.33 -3.72,3.72 -2.39,3.19 -3.99,5.59 -3.99,9.31 0,2.39 0.8,3.99 1.6,3.99zm92.07 -27.94l0.8 -0.8c0.53,-0.8 0.53,-1.6 0.53,-2.39l-2.13 0 -0.8 2.39 1.6 0.8zm88.88 39.65l-1.6 0c-2.39,-0.8 -3.19,-1.6 -3.19,-3.19l1.6 -2.13c1.6,0 4.52,2.13 4.52,3.72l0 0.8c0,0.8 -0.53,0.8 -1.33,0.8zm67.59 1092.85c2.39,0 5.59,-2.13 7.18,-2.93 1.33,-1.6 2.93,-2.39 4.52,-2.39l2.39 0c5.59,0 11.71,-5.59 12.51,-10.91 0,-4.79 1.6,-6.92 3.99,-7.72l4.52 -2.39 9.31 -3.19c10.11,-3.19 14.9,-6.92 16.5,-11.71 1.6,-3.19 4.52,-4.52 8.52,-4.52 2.39,0 4.79,0.8 7.72,1.33l6.38 0.8c2.4,0 2.93,-0.8 5.32,-2.13 12.51,-10.91 17.3,-14.1 20.22,-14.1l0.8 0c4.79,0 10.11,-6.39 12.51,-12.51 3.99,-10.91 7.98,-16.5 12.51,-16.5 3.19,0 6.39,2.39 10.11,7.18l5.59 4.52c0.8,0 2.13,1.6 3.72,3.19 1.6,1.6 2.39,2.39 3.99,2.39l3.19 -0.8c2.13,-0.8 5.32,-3.19 6.12,-4.79 3.19,-3.72 9.31,-6.12 14.9,-6.12l4.52 0c4.79,0 7.18,-1.6 10.11,-8.51 0.8,-2.39 3.99,-5.59 7.18,-6.39 6.12,-2.13 7.72,-4.52 10.11,-13.3 0.8,-5.32 2.39,-8.52 3.19,-8.52 0.8,0 1.6,0.8 1.6,3.19 0.53,3.19 1.33,3.99 5.32,4.79 2.39,0 5.59,1.33 6.12,2.13 0.8,0.8 1.6,1.6 3.19,1.6 1.6,0 3.99,-1.6 4.79,-3.19l0 -0.53c0,-0.8 0,-1.6 -0.8,-1.6 -0.8,0 -0.8,-0.8 -0.8,-1.6 0,-0.8 0.8,-3.19 3.19,-3.99 1.33,0 1.33,0 1.33,-0.8l-0.53 -2.93 -0.8 -2.39c0,-0.8 0.8,-2.39 2.93,-3.99 1.6,-2.39 4.79,-3.99 7.18,-3.99 2.13,0 3.72,-0.53 3.72,-2.93 0.8,-2.39 1.6,-3.19 2.39,-3.19 0.8,0 1.6,-1.6 1.6,-2.39 0,-1.6 1.6,-6.12 3.99,-10.11 2.13,-4.52 4.52,-6.92 6.12,-6.92l0.8 0c1.6,0 2.39,-1.6 2.39,-3.99 0,-2.39 1.6,-6.12 3.19,-8.52 4.52,-9.31 6.12,-11.71 6.12,-14.9 0,-4.52 -0.8,-6.92 -3.19,-14.64l4.79 -4.79c3.19,-3.19 4.52,-4.79 4.52,-7.72l-2.13 -10.91 0.8 -3.19c0.53,-1.6 1.33,-5.59 1.33,-8.51 0.8,-2.39 1.6,-4.79 2.39,-4.79 0.8,0 1.6,-0.8 1.6,-1.6 0,-1.6 0,-2.93 -0.8,-2.93 -0.8,0 -1.6,-0.8 -1.6,-1.6 0,-1.6 1.6,-4.79 3.99,-5.59 1.6,-0.8 3.19,-2.39 3.19,-5.32 0,-2.39 0.8,-3.99 0.8,-3.99 6.92,-56.94 28.74,-137.3 43.64,-208.09 13.04,-65.46 31.13,-136.51 49.76,-204.36 14.9,-51.36 33.53,-124 50.02,-151.94 -1.6,-2.39 -2.39,-4.79 -3.19,-6.92l4.52 -1.6c1.6,0 3.19,0 3.99,-0.8 0.8,-0.8 3.99,-0.8 6.92,-0.8l4.79 0c30.33,0 52.95,-13.3 79.56,-15.7 1.6,-0.8 6.12,-0.8 10.91,-0.8l3.99 0c2.93,0 6.12,0 6.92,-0.8l3.99 -0.8 1.33 0c1.6,0 3.99,-0.53 4.79,-1.33 0.8,-0.8 4.79,-1.6 8.51,-1.6l4.79 0c10.11,0 20.22,-2.39 28.74,-7.18 2.39,-1.33 3.99,-2.93 3.99,-4.52 0,-1.6 -0.8,-2.39 -3.19,-2.39l-3.19 0 -5.32 -0.8 -3.19 -0.8 -12.51 2.39 -3.72 -0.8 -0.8 -0.8c0,-0.8 0.8,-0.8 2.39,-0.8 0.53,-0.8 2.13,-1.6 2.13,-2.39 0.8,-1.33 2.39,-3.72 4.79,-5.32 2.39,-1.6 3.99,-2.39 3.99,-3.99l-0.8 -2.93c0,-1.6 0.8,-1.6 1.33,-2.39 1.6,0 2.39,-0.8 2.39,-2.39l0 -0.8c0,-1.6 0.8,-2.39 0.8,-2.39l0.8 0c1.6,0 3.19,-0.8 4.79,-1.6 2.93,-0.8 6.92,-2.13 9.31,-2.13 6.12,0 10.91,-2.39 20.22,-8.78 6.12,-3.72 7.72,-4.52 10.11,-4.52 3.19,0 12.51,-7.18 13.3,-9.31l3.19 -6.39c1.33,-2.39 3.72,-8.52 4.52,-14.64 2.39,-11.71 5.59,-16.5 14.1,-22.09 4.79,-2.93 5.32,-4.52 6.12,-9.31 0.8,-4.52 1.6,-6.92 5.59,-9.31 3.99,-3.72 10.11,-11.71 10.91,-16.23 0,-1.6 -1.6,-4.79 -3.19,-7.19 -1.6,-2.39 -3.19,-4.52 -3.19,-6.92 0,-3.19 1.6,-5.59 3.19,-8.52l0.8 -1.6 -1.6 -3.99 -0.8 -3.19c0,-1.33 2.4,-2.13 7.19,-2.93 2.13,0 4.52,-0.8 5.32,-1.6 0,-0.8 1.6,-0.8 1.6,-0.8l0.8 0c0.8,0 1.6,-3.19 1.6,-4.79l0 -1.33 -2.39 -0.8 -8.51 2.13c-5.59,0 -3.99,-0.8 -8.52,-1.33l3.73 -2.39c2.39,-1.6 3.99,-3.19 3.99,-4.79 0,-0.8 -0.8,-2.39 -3.19,-2.39 -2.39,-0.8 -3.72,-2.13 -3.72,-3.72l0.53 -1.6 0.8 0c0.8,0 2.39,-1.6 3.19,-4.79 0.8,-2.39 1.6,-3.72 2.39,-3.72l8.51 0c5.59,0 7.72,0 9.31,-0.8 0.8,-0.8 1.6,-1.6 1.6,-2.39 0,-0.8 0.8,-1.6 2.39,-2.39 1.6,-0.8 2.4,-1.6 2.4,-2.39 0,-1.6 -3.19,-2.93 -7.98,-2.93 -6.12,0 -6.92,0 -7.72,-3.99l0 -3.99c5.59,-2.13 21.02,-11.71 23.42,-13.04 1.6,-1.6 3.99,-2.4 4.79,-2.4 0,0 3.72,-1.6 7.72,-4.79l14.1 -6.92c7.72,-2.39 21.02,-10.11 21.82,-12.51 0.8,-1.6 3.72,-4.79 7.72,-7.72 3.99,-3.19 6.92,-7.18 6.92,-8.78 0.8,-2.13 3.19,-4.52 7.18,-6.12 3.73,-2.39 6.12,-5.59 6.12,-6.92 0,-3.19 -3.19,-4.79 -6.92,-5.59l-2.39 0c-2.39,0 -4.79,0 -6.92,0.8 -3.19,0.8 -8.78,1.6 -13.3,1.6l-25.01 0 -5.32 0.8c-1.6,0.8 -4.79,1.6 -8.78,1.6l-14.64 -0.8c-6.39,0 -10.91,1.6 -16.5,6.12 -2.39,1.6 -8.51,3.19 -18.63,3.19l-44.44 0c-118.41,9.31 -216.07,12.51 -323.57,21.02 -104.58,8.52 -204.36,23.42 -314.26,30.33 -41.25,7.98 -55.35,10.11 -74.77,11.71 -8.52,0.8 -17.03,2.39 -21.02,3.99 -3.19,1.6 -8.51,3.19 -12.51,3.72 -3.99,0 -9.31,1.6 -12.51,2.39 -1.6,0.8 -3.72,1.6 -5.32,1.6l-3.19 0c-1.6,0 -3.19,0.8 -3.99,1.6 -1.33,1.6 -2.93,1.6 -4.52,1.6l-13.3 -1.6c-0.8,0.8 -0.8,1.6 -0.8,3.19l1.6 17.03 0 3.19c-0.8,2.39 -0.8,7.72 -0.8,13.31 0,4.52 0,9.31 0.8,10.91l0 4.52c0,2.39 0.8,5.59 3.19,7.98 1.33,2.13 2.13,5.32 2.13,6.92l0 0.8c0,2.39 2.39,7.72 4.79,12.51l7.72 14.64c1.6,2.39 1.6,5.59 1.6,8.78 0,2.13 0,5.32 -1.6,6.92 -1.6,1.6 -2.13,3.19 -2.13,5.32l1.33 14.9 -1.33 21.82c0,8.52 0.53,17.3 2.13,21.82 1.6,2.39 4.79,6.39 7.98,7.98 8.51,4.52 10.11,6.92 13.84,21.82l7.18 21.02 0 0.8c0,2.93 10.91,36.46 13.31,39.65 1.33,2.39 2.93,3.99 4.52,3.99l2.39 -0.8c3.19,-0.8 6.12,-1.6 9.31,-1.6 3.19,0 6.12,0.8 6.92,1.6 1.6,1.6 13.3,2.93 35.12,3.72 31.93,-2.93 69.45,0.8 98.19,-10.91 2.39,-1.6 3.99,-1.6 5.59,-1.6l5.32 0.8 7.98 0.8c2.13,0 2.93,0 2.93,-0.8l0 -1.33c0,-1.6 0.8,-2.39 4.79,-2.39l22.62 1.6 6.92 -0.8 6.39 0.8 2.93 0.8c0,2.93 0,6.92 -0.53,9.31 -1.6,1.6 -3.99,2.39 -7.18,2.93l-2.39 14.9c-1.33,9.31 -5.32,23.42 -9.31,35.13l-3.72 14.1c-0.8,5.32 -3.19,13.04 -3.99,15.43 -1.6,3.19 -3.19,9.31 -3.99,13.31 -0.8,4.79 -1.6,8.51 -2.39,10.11 -2.13,3.19 -4.52,16.5 -13.84,58.54 -34.33,152.74 -79.56,336.08 -109.1,469.92 0,4.79 -1.6,11.71 -3.19,14.9l-3.99 36.72 -0.8 21.02c0,23.42 2.39,38.05 9.31,57.74 1.6,4.52 3.19,10.91 3.19,13.3 0,2.93 1.6,6.92 2.39,8.52 0.8,0.8 1.6,2.39 1.6,3.72l-0.8 5.59c0,3.19 1.6,5.32 4.52,5.32l2.39 0zm631.44 -869.06c0.8,-0.8 3.19,-0.8 3.99,-0.8l3.19 -0.8 0 -0.8 -1.6 -0.8 -2.39 0 -2.39 0.8c-1.6,0 -2.39,0.8 -2.39,1.6 0,0.8 0,0.8 1.6,0.8zm-8.51 3.19c3.19,-1.6 4.79,-2.4 4.79,-3.19 0,-0.8 -0.8,-0.8 -1.6,-0.8l-3.19 0c-1.6,0 -2.39,1.6 -3.19,2.39 0,0.8 0.8,1.6 1.6,1.6l1.6 0zm-507.44 91c1.6,0 3.19,-2.92 3.19,-4.52l0 -0.8 -2.39 0c-0.8,0.8 -1.6,2.4 -1.6,3.73 0,0.8 0,1.6 0.8,1.6z"/>
  </g>
 </g>
</svg>
